<mxfile host="www.draw.io" modified="2024-05-02T14:51:41.344Z" agent="Mozilla/5.0 (Windows NT 10.0; Win64; x64) AppleWebKit/537.36 (KHTML, like Gecko) Chrome/124.0.0.0 Safari/537.36" etag="lC7HZSORucE9twnO7fke" version="24.3.1" type="device">
  <diagram name="第 1 页" id="cIrNhAaRVo3fqblxRnJS">
    <mxGraphModel dx="1050" dy="625" grid="1" gridSize="10" guides="1" tooltips="1" connect="1" arrows="1" fold="1" page="1" pageScale="1" pageWidth="827" pageHeight="1169" math="0" shadow="0">
      <root>
        <mxCell id="0" />
        <mxCell id="1" parent="0" />
        <mxCell id="k4Zqk2MXU6BnERTlMWM5-35" value="" style="rounded=0;whiteSpace=wrap;html=1;gradientColor=#FF3333;gradientDirection=west;strokeColor=none;" vertex="1" parent="1">
          <mxGeometry x="630" y="390" width="50" height="10" as="geometry" />
        </mxCell>
        <mxCell id="k4Zqk2MXU6BnERTlMWM5-36" value="" style="rounded=0;whiteSpace=wrap;html=1;fillColor=none;" vertex="1" parent="1">
          <mxGeometry x="630" y="390" width="50" height="10" as="geometry" />
        </mxCell>
        <mxCell id="k4Zqk2MXU6BnERTlMWM5-1" value="" style="ellipse;whiteSpace=wrap;html=1;aspect=fixed;fillColor=#CCFFCC;strokeColor=#000000;" vertex="1" parent="1">
          <mxGeometry x="150" y="210" width="30" height="30" as="geometry" />
        </mxCell>
        <mxCell id="k4Zqk2MXU6BnERTlMWM5-2" value="" style="rounded=1;whiteSpace=wrap;html=1;fillColor=#FFCCFF;strokeColor=#000000;" vertex="1" parent="1">
          <mxGeometry x="150" y="250" width="30" height="70" as="geometry" />
        </mxCell>
        <mxCell id="k4Zqk2MXU6BnERTlMWM5-4" value="" style="rounded=0;whiteSpace=wrap;html=1;gradientColor=#FF3333;gradientDirection=west;strokeColor=none;" vertex="1" parent="1">
          <mxGeometry x="140" y="190" width="10" height="10" as="geometry" />
        </mxCell>
        <mxCell id="k4Zqk2MXU6BnERTlMWM5-3" value="" style="rounded=0;whiteSpace=wrap;html=1;fillColor=none;" vertex="1" parent="1">
          <mxGeometry x="140" y="190" width="50" height="10" as="geometry" />
        </mxCell>
        <mxCell id="k4Zqk2MXU6BnERTlMWM5-5" value="" style="ellipse;whiteSpace=wrap;html=1;aspect=fixed;fillColor=#CCFFCC;strokeColor=#000000;" vertex="1" parent="1">
          <mxGeometry x="300" y="210" width="30" height="30" as="geometry" />
        </mxCell>
        <mxCell id="k4Zqk2MXU6BnERTlMWM5-6" value="" style="rounded=1;whiteSpace=wrap;html=1;fillColor=#E5CCFF;strokeColor=#000000;" vertex="1" parent="1">
          <mxGeometry x="300" y="250" width="30" height="70" as="geometry" />
        </mxCell>
        <mxCell id="k4Zqk2MXU6BnERTlMWM5-7" value="" style="rounded=0;whiteSpace=wrap;html=1;gradientColor=#FF3333;gradientDirection=west;strokeColor=none;" vertex="1" parent="1">
          <mxGeometry x="290" y="190" width="20" height="10" as="geometry" />
        </mxCell>
        <mxCell id="k4Zqk2MXU6BnERTlMWM5-8" value="" style="rounded=0;whiteSpace=wrap;html=1;fillColor=none;" vertex="1" parent="1">
          <mxGeometry x="290" y="190" width="50" height="10" as="geometry" />
        </mxCell>
        <mxCell id="k4Zqk2MXU6BnERTlMWM5-9" value="" style="ellipse;whiteSpace=wrap;html=1;aspect=fixed;fillColor=#CCFFCC;strokeColor=#000000;" vertex="1" parent="1">
          <mxGeometry x="450" y="210" width="30" height="30" as="geometry" />
        </mxCell>
        <mxCell id="k4Zqk2MXU6BnERTlMWM5-10" value="" style="rounded=1;whiteSpace=wrap;html=1;fillColor=#CCCCFF;strokeColor=#000000;" vertex="1" parent="1">
          <mxGeometry x="450" y="250" width="30" height="70" as="geometry" />
        </mxCell>
        <mxCell id="k4Zqk2MXU6BnERTlMWM5-11" value="" style="rounded=0;whiteSpace=wrap;html=1;gradientColor=#FF3333;gradientDirection=west;strokeColor=none;" vertex="1" parent="1">
          <mxGeometry x="440" y="190" width="30" height="10" as="geometry" />
        </mxCell>
        <mxCell id="k4Zqk2MXU6BnERTlMWM5-12" value="" style="rounded=0;whiteSpace=wrap;html=1;fillColor=none;" vertex="1" parent="1">
          <mxGeometry x="440" y="190" width="50" height="10" as="geometry" />
        </mxCell>
        <mxCell id="k4Zqk2MXU6BnERTlMWM5-13" value="" style="ellipse;whiteSpace=wrap;html=1;aspect=fixed;fillColor=#CCFFCC;strokeColor=#000000;" vertex="1" parent="1">
          <mxGeometry x="600" y="210" width="30" height="30" as="geometry" />
        </mxCell>
        <mxCell id="k4Zqk2MXU6BnERTlMWM5-14" value="" style="rounded=1;whiteSpace=wrap;html=1;fillColor=#99CCFF;strokeColor=#000000;" vertex="1" parent="1">
          <mxGeometry x="600" y="250" width="30" height="70" as="geometry" />
        </mxCell>
        <mxCell id="k4Zqk2MXU6BnERTlMWM5-15" value="" style="rounded=0;whiteSpace=wrap;html=1;gradientColor=#FF3333;gradientDirection=west;strokeColor=none;" vertex="1" parent="1">
          <mxGeometry x="590" y="190" width="40" height="10" as="geometry" />
        </mxCell>
        <mxCell id="k4Zqk2MXU6BnERTlMWM5-16" value="" style="rounded=0;whiteSpace=wrap;html=1;fillColor=none;" vertex="1" parent="1">
          <mxGeometry x="590" y="190" width="50" height="10" as="geometry" />
        </mxCell>
        <mxCell id="k4Zqk2MXU6BnERTlMWM5-17" value="" style="ellipse;whiteSpace=wrap;html=1;aspect=fixed;fillColor=#FFCCE6;strokeColor=#000000;" vertex="1" parent="1">
          <mxGeometry x="150" y="410" width="30" height="30" as="geometry" />
        </mxCell>
        <mxCell id="k4Zqk2MXU6BnERTlMWM5-18" value="" style="rounded=1;whiteSpace=wrap;html=1;fillColor=#DBFEFF;strokeColor=#000000;" vertex="1" parent="1">
          <mxGeometry x="150" y="450" width="30" height="70" as="geometry" />
        </mxCell>
        <mxCell id="k4Zqk2MXU6BnERTlMWM5-19" value="" style="rounded=0;whiteSpace=wrap;html=1;gradientColor=#FF3333;gradientDirection=west;strokeColor=none;" vertex="1" parent="1">
          <mxGeometry x="140" y="390" width="10" height="10" as="geometry" />
        </mxCell>
        <mxCell id="k4Zqk2MXU6BnERTlMWM5-20" value="" style="rounded=0;whiteSpace=wrap;html=1;fillColor=none;" vertex="1" parent="1">
          <mxGeometry x="140" y="390" width="50" height="10" as="geometry" />
        </mxCell>
        <mxCell id="k4Zqk2MXU6BnERTlMWM5-21" value="" style="ellipse;whiteSpace=wrap;html=1;aspect=fixed;fillColor=#FFCCE6;strokeColor=#000000;" vertex="1" parent="1">
          <mxGeometry x="300" y="410" width="30" height="30" as="geometry" />
        </mxCell>
        <mxCell id="k4Zqk2MXU6BnERTlMWM5-22" value="" style="rounded=1;whiteSpace=wrap;html=1;fillColor=#99FFFF;strokeColor=#000000;" vertex="1" parent="1">
          <mxGeometry x="300" y="450" width="30" height="70" as="geometry" />
        </mxCell>
        <mxCell id="k4Zqk2MXU6BnERTlMWM5-23" value="" style="rounded=0;whiteSpace=wrap;html=1;gradientColor=#FF3333;gradientDirection=west;strokeColor=none;" vertex="1" parent="1">
          <mxGeometry x="290" y="390" width="10" height="10" as="geometry" />
        </mxCell>
        <mxCell id="k4Zqk2MXU6BnERTlMWM5-24" value="" style="rounded=0;whiteSpace=wrap;html=1;fillColor=none;" vertex="1" parent="1">
          <mxGeometry x="290" y="390" width="50" height="10" as="geometry" />
        </mxCell>
        <mxCell id="k4Zqk2MXU6BnERTlMWM5-25" value="" style="ellipse;whiteSpace=wrap;html=1;aspect=fixed;fillColor=#CCFFCC;strokeColor=#000000;" vertex="1" parent="1">
          <mxGeometry x="399" y="410" width="30" height="30" as="geometry" />
        </mxCell>
        <mxCell id="k4Zqk2MXU6BnERTlMWM5-26" value="" style="rounded=1;whiteSpace=wrap;html=1;fillColor=#E5CCFF;strokeColor=#000000;" vertex="1" parent="1">
          <mxGeometry x="399" y="450" width="30" height="70" as="geometry" />
        </mxCell>
        <mxCell id="k4Zqk2MXU6BnERTlMWM5-27" value="" style="rounded=0;whiteSpace=wrap;html=1;gradientColor=#FF3333;gradientDirection=west;strokeColor=none;" vertex="1" parent="1">
          <mxGeometry x="389" y="390" width="20" height="10" as="geometry" />
        </mxCell>
        <mxCell id="k4Zqk2MXU6BnERTlMWM5-28" value="" style="rounded=0;whiteSpace=wrap;html=1;fillColor=none;" vertex="1" parent="1">
          <mxGeometry x="389" y="390" width="50" height="10" as="geometry" />
        </mxCell>
        <mxCell id="k4Zqk2MXU6BnERTlMWM5-29" value="" style="ellipse;whiteSpace=wrap;html=1;aspect=fixed;fillColor=#CCFFFF;strokeColor=#000000;" vertex="1" parent="1">
          <mxGeometry x="540" y="410" width="30" height="30" as="geometry" />
        </mxCell>
        <mxCell id="k4Zqk2MXU6BnERTlMWM5-30" value="" style="rounded=1;whiteSpace=wrap;html=1;fillColor=#E5CCFF;strokeColor=#000000;" vertex="1" parent="1">
          <mxGeometry x="540" y="450" width="30" height="70" as="geometry" />
        </mxCell>
        <mxCell id="k4Zqk2MXU6BnERTlMWM5-31" value="" style="rounded=0;whiteSpace=wrap;html=1;gradientColor=#FF3333;gradientDirection=west;strokeColor=none;" vertex="1" parent="1">
          <mxGeometry x="530" y="390" width="20" height="10" as="geometry" />
        </mxCell>
        <mxCell id="k4Zqk2MXU6BnERTlMWM5-32" value="" style="rounded=0;whiteSpace=wrap;html=1;fillColor=none;" vertex="1" parent="1">
          <mxGeometry x="530" y="390" width="50" height="10" as="geometry" />
        </mxCell>
        <mxCell id="k4Zqk2MXU6BnERTlMWM5-33" value="" style="ellipse;whiteSpace=wrap;html=1;aspect=fixed;fillColor=#CCFFFF;strokeColor=#000000;" vertex="1" parent="1">
          <mxGeometry x="640" y="410" width="30" height="30" as="geometry" />
        </mxCell>
        <mxCell id="k4Zqk2MXU6BnERTlMWM5-34" value="" style="rounded=1;whiteSpace=wrap;html=1;fillColor=#CCFFE6;strokeColor=#000000;" vertex="1" parent="1">
          <mxGeometry x="640" y="450" width="30" height="70" as="geometry" />
        </mxCell>
        <mxCell id="k4Zqk2MXU6BnERTlMWM5-37" value="" style="rounded=1;whiteSpace=wrap;html=1;fillColor=none;" vertex="1" parent="1">
          <mxGeometry x="274" y="175" width="80" height="360" as="geometry" />
        </mxCell>
        <mxCell id="k4Zqk2MXU6BnERTlMWM5-38" value="" style="endArrow=classicThin;html=1;rounded=0;endFill=1;dashed=1;strokeWidth=1;" edge="1" parent="1">
          <mxGeometry width="50" height="50" relative="1" as="geometry">
            <mxPoint x="190" y="280" as="sourcePoint" />
            <mxPoint x="290" y="280" as="targetPoint" />
          </mxGeometry>
        </mxCell>
        <mxCell id="k4Zqk2MXU6BnERTlMWM5-39" value="" style="endArrow=none;dashed=1;html=1;strokeWidth=1;rounded=0;edgeStyle=orthogonalEdgeStyle;curved=1;" edge="1" parent="1">
          <mxGeometry width="50" height="50" relative="1" as="geometry">
            <mxPoint x="186" y="224" as="sourcePoint" />
            <mxPoint x="246" y="274" as="targetPoint" />
          </mxGeometry>
        </mxCell>
        <mxCell id="k4Zqk2MXU6BnERTlMWM5-40" value="" style="endArrow=classicThin;html=1;rounded=0;endFill=1;dashed=1;strokeWidth=1;" edge="1" parent="1">
          <mxGeometry width="50" height="50" relative="1" as="geometry">
            <mxPoint x="339" y="279" as="sourcePoint" />
            <mxPoint x="439" y="279" as="targetPoint" />
          </mxGeometry>
        </mxCell>
        <mxCell id="k4Zqk2MXU6BnERTlMWM5-41" value="" style="endArrow=none;dashed=1;html=1;strokeWidth=1;rounded=0;edgeStyle=orthogonalEdgeStyle;curved=1;" edge="1" parent="1">
          <mxGeometry width="50" height="50" relative="1" as="geometry">
            <mxPoint x="335" y="223" as="sourcePoint" />
            <mxPoint x="395" y="273" as="targetPoint" />
          </mxGeometry>
        </mxCell>
        <mxCell id="k4Zqk2MXU6BnERTlMWM5-42" value="" style="endArrow=classicThin;html=1;rounded=0;endFill=1;dashed=1;strokeWidth=1;" edge="1" parent="1">
          <mxGeometry width="50" height="50" relative="1" as="geometry">
            <mxPoint x="490" y="279" as="sourcePoint" />
            <mxPoint x="590" y="279" as="targetPoint" />
          </mxGeometry>
        </mxCell>
        <mxCell id="k4Zqk2MXU6BnERTlMWM5-43" value="" style="endArrow=none;dashed=1;html=1;strokeWidth=1;rounded=0;edgeStyle=orthogonalEdgeStyle;curved=1;" edge="1" parent="1">
          <mxGeometry width="50" height="50" relative="1" as="geometry">
            <mxPoint x="486" y="223" as="sourcePoint" />
            <mxPoint x="546" y="273" as="targetPoint" />
          </mxGeometry>
        </mxCell>
        <mxCell id="k4Zqk2MXU6BnERTlMWM5-44" value="" style="endArrow=classicThin;html=1;rounded=0;endFill=1;dashed=1;strokeWidth=1;" edge="1" parent="1">
          <mxGeometry width="50" height="50" relative="1" as="geometry">
            <mxPoint x="189" y="479" as="sourcePoint" />
            <mxPoint x="289" y="479" as="targetPoint" />
          </mxGeometry>
        </mxCell>
        <mxCell id="k4Zqk2MXU6BnERTlMWM5-45" value="" style="endArrow=none;dashed=1;html=1;strokeWidth=1;rounded=0;edgeStyle=orthogonalEdgeStyle;curved=1;" edge="1" parent="1">
          <mxGeometry width="50" height="50" relative="1" as="geometry">
            <mxPoint x="185" y="423" as="sourcePoint" />
            <mxPoint x="245" y="473" as="targetPoint" />
          </mxGeometry>
        </mxCell>
        <mxCell id="k4Zqk2MXU6BnERTlMWM5-46" value="" style="endArrow=classicThin;html=1;rounded=0;endFill=1;dashed=1;strokeWidth=1;" edge="1" parent="1">
          <mxGeometry width="50" height="50" relative="1" as="geometry">
            <mxPoint x="577" y="479" as="sourcePoint" />
            <mxPoint x="630" y="479" as="targetPoint" />
          </mxGeometry>
        </mxCell>
        <mxCell id="k4Zqk2MXU6BnERTlMWM5-47" value="" style="endArrow=none;dashed=1;html=1;strokeWidth=1;rounded=0;edgeStyle=orthogonalEdgeStyle;curved=1;" edge="1" parent="1">
          <mxGeometry width="50" height="50" relative="1" as="geometry">
            <mxPoint x="574" y="423" as="sourcePoint" />
            <mxPoint x="604" y="473" as="targetPoint" />
          </mxGeometry>
        </mxCell>
        <mxCell id="k4Zqk2MXU6BnERTlMWM5-48" value="" style="endArrow=classic;html=1;rounded=0;entryX=1;entryY=0.5;entryDx=0;entryDy=0;exitX=1;exitY=0.5;exitDx=0;exitDy=0;" edge="1" parent="1">
          <mxGeometry width="50" height="50" relative="1" as="geometry">
            <mxPoint x="435" y="424.5699999999999" as="sourcePoint" />
            <mxPoint x="534" y="424.9999999999999" as="targetPoint" />
          </mxGeometry>
        </mxCell>
        <mxCell id="k4Zqk2MXU6BnERTlMWM5-49" value="&lt;font style=&quot;font-size: 15px;&quot;&gt;explore&lt;/font&gt;" style="edgeLabel;html=1;align=center;verticalAlign=middle;resizable=0;points=[];" vertex="1" connectable="0" parent="k4Zqk2MXU6BnERTlMWM5-48">
          <mxGeometry x="-0.1568" relative="1" as="geometry">
            <mxPoint as="offset" />
          </mxGeometry>
        </mxCell>
        <mxCell id="k4Zqk2MXU6BnERTlMWM5-50" value="" style="endArrow=classic;html=1;rounded=0;entryX=0.5;entryY=0;entryDx=0;entryDy=0;" edge="1" parent="1">
          <mxGeometry width="50" height="50" relative="1" as="geometry">
            <mxPoint x="360" y="352" as="sourcePoint" />
            <mxPoint x="414" y="386.9999999999999" as="targetPoint" />
            <Array as="points">
              <mxPoint x="414" y="352" />
            </Array>
          </mxGeometry>
        </mxCell>
        <mxCell id="k4Zqk2MXU6BnERTlMWM5-51" value="&lt;font style=&quot;font-size: 15px;&quot;&gt;exploit&lt;/font&gt;" style="edgeLabel;html=1;align=center;verticalAlign=middle;resizable=0;points=[];" vertex="1" connectable="0" parent="k4Zqk2MXU6BnERTlMWM5-50">
          <mxGeometry x="0.1098" y="-1" relative="1" as="geometry">
            <mxPoint as="offset" />
          </mxGeometry>
        </mxCell>
        <mxCell id="k4Zqk2MXU6BnERTlMWM5-52" value="&lt;font style=&quot;font-size: 15px;&quot;&gt;Performance&lt;/font&gt;" style="text;html=1;align=center;verticalAlign=middle;whiteSpace=wrap;rounded=0;" vertex="1" parent="1">
          <mxGeometry x="135" y="145" width="60" height="30" as="geometry" />
        </mxCell>
        <mxCell id="k4Zqk2MXU6BnERTlMWM5-53" value="&lt;font style=&quot;font-size: 15px;&quot;&gt;Hyperparameters&lt;/font&gt;" style="text;html=1;align=center;verticalAlign=middle;whiteSpace=wrap;rounded=0;" vertex="1" parent="1">
          <mxGeometry x="50" y="210" width="60" height="30" as="geometry" />
        </mxCell>
        <mxCell id="k4Zqk2MXU6BnERTlMWM5-54" value="&lt;font style=&quot;font-size: 15px;&quot;&gt;Model&lt;/font&gt;" style="text;html=1;align=center;verticalAlign=middle;whiteSpace=wrap;rounded=0;" vertex="1" parent="1">
          <mxGeometry x="85" y="265" width="60" height="30" as="geometry" />
        </mxCell>
      </root>
    </mxGraphModel>
  </diagram>
</mxfile>
